name 900006_13rea_lsw
datacolumns 54
datarows 8
range 0.5912500009999995 0.6513333347999991
cursor 1.0 1.0 0.0
keys m_key
wrap
enforce_loops no
enforce_constraints no
calc_derivatives 0.008583
event_color 1.000000 0.000000 1.000000
endheader

time	calcn_r_tx	calcn_r_ty	calcn_r_tz	calcn_r_r1	calcn_r_r2	calcn_r_r3	calcn_l_tx	calcn_l_ty	calcn_l_tz	calcn_l_r1	calcn_l_r2	calcn_l_r3	pelvis_tz	pelvis_tx	pelvis_ty	pelvis_tilt	pelvis_list	pelvis_rotation	hip_flexion_r	hip_adduction_r	hip_rotation_r	knee_angle_r	ankle_angle_r	subtalar_angle_r	mtp_angle_r	hip_flexion_l	hip_adduction_l	hip_rotation_l	knee_angle_l	ankle_angle_l	subtalar_angle_l	mtp_angle_l	lumbar_extension	lumbar_bending	lumbar_rotation	ground_force_px	ground_force_py	ground_force_pz	ground_force_vx	ground_force_vy	ground_force_vz	ground_force_px	ground_force_py	ground_force_pz	ground_force_vx	ground_force_vy	ground_force_vz	ground_torque_x	ground_torque_y	ground_torque_z	ground_torque_x	ground_torque_y	ground_torque_z	
      0.5912500009999995	      1.9631611286305937	      0.0384191209814632	     -0.2237241115588703	      2.7883317769121763	      2.3755586835302180	     -0.5019512602719138	      1.4862740869957614	      0.1316246747324390	     -0.3217718629067610	     -3.8933695128831451	      1.4434943045523874	    -38.2401573811013340	     -0.2872546591884138	      1.9080511487929035	      0.8120840438496371	      3.7313585510400533	     -2.1926311054128553	      1.1433816496878575	     20.1540590337018590	      4.4447007244509074	     -1.3255808767331969	    -19.8165321188243130	     -4.4917994219933925	      0.0000000000000000	      0.0000000000000000	    -13.9504861879033920	      1.6997064476586285	     -0.9340848483763188	    -31.8336937685312090	      3.8629977180486517	      0.0000000000000000	      0.0000000000000000	    -10.0364468112779300	      6.2949747026791432	     -3.2980640636287597	      2.0104397611384131	      0.0000000000000000	     -0.2329906069456084	    -64.0859360979717250	    369.9078672158131600	      1.2655163230531294	      1.6220088259754031	      0.0000000000000000	     -0.3061533590469828	     27.2069814023880560	     99.5207162872204240	     -7.3798989673042330	      0.0000000000000000	     -0.2760747536906931	      0.0000000000000000	      0.0000000000000000	      0.1099072010231778	      0.0000000000000000	
      0.5998333343999994	      1.9636788287427385	      0.0390965152875078	     -0.2235117276855244	      2.7597050433538008	      2.5882028766502367	     -0.8876850844724674	      1.4970238778923812	      0.1413529504769431	     -0.3229029152390750	     -3.8683613527946887	      1.5982353386919339	    -42.1803711597000230	     -0.2865652117494965	      1.9177726577235279	      0.8143048311215120	      3.8767036149264533	     -2.4116123283523723	      0.9530441989926682	     19.2933332046701300	      4.8538984312229294	     -0.8928835923039236	    -19.9008248148688870	     -4.0729943226535061	      0.0000000000000000	      0.0000000000000000	    -12.9275396391228540	      1.4954802459271148	     -0.8407393598815344	    -34.4025440154889990	      1.2812034802870069	      0.0000000000000000	      0.0000000000000000	    -10.4432416877680190	      6.6707451715949446	     -3.3029428381879375	      2.0120569091048064	      0.0000000000000000	     -0.2327721446349766	    -62.0803550032170510	    390.3432509298692700	     -1.1965598589124917	      1.6243111245857347	      0.0000000000000000	     -0.3058688225162380	     15.4604241430457140	     55.4933878024561690	     -5.0439567719519980	      0.0000000000000000	     -0.2504222159326516	      0.0000000000000000	      0.0000000000000000	      0.0452640617864398	      0.0000000000000000	
      0.6084166677999994	      1.9641254507933936	      0.0395713419784815	     -0.2233623099520813	      2.7453762750498822	      2.6917992200733765	     -1.1158187519492349	      1.5091616047376186	      0.1506348760563287	     -0.3237743017610681	     -3.7559827509074388	      1.8478012551272840	    -45.8959770237373730	     -0.2858457318298542	      1.9273192427868198	      0.8164684533196119	      3.9741412757907497	     -2.5898751233407107	      0.7678046664262836	     18.4005003471770260	      5.1970782858640359	     -0.5358233005898063	    -19.8226426317622000	     -3.5830298672934151	      0.0000000000000000	      0.0000000000000000	    -11.7389660282109070	      1.3061391890504048	     -0.8592577730935754	    -36.9780964783649610	     -1.1849813945413814	      0.0000000000000000	      0.0000000000000000	    -10.8070514051205640	      6.9694525195222141	     -3.2982422315714803	      2.0130784018895787	      0.0000000000000000	     -0.2324810098258193	    -58.5565688608709610	    406.2057843317601300	     -3.7562111340615889	      1.6263086868460537	      0.0000000000000000	     -0.3054770211550273	      5.2319280804553312	     25.0284995045006550	     -2.7671111442846743	      0.0000000000000000	     -0.1748866809208785	      0.0000000000000000	      0.0000000000000000	     -0.0269101276979545	      0.0000000000000000	
      0.6170000011999993	      1.9644893207032992	      0.0398623170112518	     -0.2233199490647176	      2.7529125791977531	      2.6702434679496529	     -1.2317057676048238	      1.5225732516145360	      0.1592072819657098	     -0.3243697311522228	     -3.5820841182364660	      2.1497045607990386	    -49.2222413435058850	     -0.2850983378865024	      1.9366786935018079	      0.8185265082089462	      4.0132592801724689	     -2.7246773875789714	      0.5904588659158218	     17.5002692432946740	      5.4672705212356716	     -0.2822733261326946	    -19.6008722160541740	     -3.0620071713344910	      0.0000000000000000	      0.0000000000000000	    -10.3882383385189670	      1.1326694500813888	     -0.9710780735752675	    -39.5258356583089850	     -3.3886467848769852	      0.0000000000000000	      0.0000000000000000	    -11.1149516291227210	      7.1866903476789812	     -3.2831103434149052	      2.0137739547948734	      0.0000000000000000	     -0.2321211134228691	    -54.1554412537586390	    416.6699407155863400	     -6.5039751559989698	      1.6278026757565796	      0.0000000000000000	     -0.3047644421693537	     -0.1129913432542685	      7.8888656140204692	     -1.0007894535814081	      0.0000000000000000	     -0.0443176661376965	      0.0000000000000000	      0.0000000000000000	     -0.0478449787104518	      0.0000000000000000	
      0.6255833345999993	      1.9647667467283128	      0.0400080882064100	     -0.2234153290422246	      2.7850742707028413	      2.5175583058722903	     -1.2752337447223043	      1.5370986365130948	      0.1668316602768377	     -0.3247301698903646	     -3.3835856069365255	      2.4515481368917489	    -52.0093781249765000	     -0.2843351167389004	      1.9458606000551255	      0.8204522424091673	      3.9888412201632426	     -2.8178263324721544	      0.4250088116072228	     16.6125571860996080	      5.6648708733389599	     -0.1508468243680642	    -19.2590680645339630	     -2.5397811345211134	      0.0000000000000000	      0.0000000000000000	     -8.8907945576047691	      0.9769407797915358	     -1.1414415748466393	    -42.0034730602453980	     -5.1992970834692809	      0.0000000000000000	      0.0000000000000000	    -11.3563921073270410	      7.3270829134368745	     -3.2593148155757543	      2.0143526984146214	      0.0000000000000000	     -0.2316806082395602	    -49.3754729619024810	    422.3766641441698700	     -9.4164882945204837	      1.6292711001202580	      0.0000000000000000	     -0.3037292162546253	     -0.4951888299682984	      0.5041169614700649	     -0.0652875386273804	      0.0000000000000000	      0.1236306231992786	      0.0000000000000000	      0.0000000000000000	     -0.0131993407729072	      0.0000000000000000	
      0.6341666679999992	      1.9649722291203278	      0.0400577644987989	     -0.2236610584837818	      2.8399235247449544	      2.2382396345462587	     -1.2783810605731833	      1.5525611143809488	      0.1732995357093737	     -0.3249472685525228	     -3.1994729299943683	      2.6998325811563717	    -54.1377805313703040	     -0.2835758827890058	      1.9548940443900704	      0.8222387894139852	      3.9018168673470841	     -2.8735603968979486	      0.2758542816051776	     15.7506953368487200	      5.7952566154676326	     -0.1485635745822102	    -18.8227855068030260	     -2.0358548675474100	      0.0000000000000000	      0.0000000000000000	     -7.2734630319457603	      0.8429700101430415	     -1.3267676776721145	    -44.3613604898590240	     -6.5198356890694686	      0.0000000000000000	      0.0000000000000000	    -11.5246644085993960	      7.4010722823357220	     -3.2304072647258701	      2.0149375089768453	      0.0000000000000000	     -0.2311541321110313	    -44.4709371797960240	    424.0959889516840900	    -12.3971296324184000	      1.6309747608971394	      0.0000000000000000	     -0.3024629379047347	      0.0804263147357205	     -0.4545151243945219	      0.0674295045406697	      0.0000000000000000	      0.3064091002468996	      0.0000000000000000	      0.0000000000000000	      0.0045039133782966	      0.0000000000000000	
      0.6427500013999992	      1.9651246932083026	      0.0400629897314573	     -0.2240529953107405	      2.9118194267498416	      1.8467041892330216	     -1.2645077527888484	      1.5687930648431327	      0.1784402870295160	     -0.3251389113742062	     -3.0620053626820924	      2.8485468705633696	    -55.5334780126657750	     -0.2828445845601821	      1.9638094785466400	      0.8238948942924662	      3.7590207991461098	     -2.8973760838480596	      0.1469568719826421	     14.9212111769692320	      5.8672930361597366	     -0.2701572239447971	    -18.3182443349112520	     -1.5598025629260612	      0.0000000000000000	      0.0000000000000000	     -5.5709574222709435	      0.7366014896788518	     -1.4831721000398148	    -46.5467544506363640	     -7.3011205678979563	      0.0000000000000000	      0.0000000000000000	    -11.6216279847246720	      7.4223975845307608	     -3.2007707992230703	      2.0156168513111750	      0.0000000000000000	     -0.2305646473015545	    -39.5298504392290230	    422.0232997323269600	    -15.3029594403664540	      1.6329087578963517	      0.0000000000000000	     -0.3011107907866524	      0.0793585677757878	      0.0607800899071713	     -0.0064166980838177	      0.0000000000000000	      0.4843275581063681	      0.0000000000000000	      0.0000000000000000	      0.0013225579362222	      0.0000000000000000	
      0.6513333347999991	      1.9652344360447198	      0.0400667357687751	     -0.2245755596371046	      2.9931570083011434	      1.3651907937196082	     -1.2497706914252962	      1.5856614668298670	      0.1821296616611509	     -0.3254159395366910	     -2.9908349929670015	      2.8653991125216640	    -56.1761965693559020	     -0.2821639074087453	      1.9726339539510103	      0.8254348482142085	      3.5712571569626128	     -2.8950357940102007	      0.0409258072496917	     14.1246032441051170	      5.8919021600133945	     -0.4993545683512721	    -17.7708164935899330	     -1.1131045707513181	      0.0000000000000000	      0.0000000000000000	     -3.8207586480797842	      0.6646044436214212	     -1.5744009961378769	    -48.5101739291506320	     -7.5463898535552243	      0.0000000000000000	      0.0000000000000000	    -11.6560084033881180	      7.4051163613555051	     -3.1734288185169834	      2.0164692237633761	      0.0000000000000000	     -0.2299554145339856	    -34.5881534963019560	    415.9554032927691200	    -17.8728479566166880	      1.6349734814789079	      0.0000000000000000	     -0.2998561417127343	     -0.0146328595192010	      0.0857275073603717	     -0.0122019448253252	      0.0000000000000000	      0.6366976055814697	      0.0000000000000000	      0.0000000000000000	     -0.0008269922570512	      0.0000000000000000	
